<svg id="レイヤー_1" data-name="レイヤー 1" xmlns="http://www.w3.org/2000/svg" viewBox="0 0 268.99 94.53"><defs><style>.cls-1{fill:#1c2a54;}.cls-2{fill:#a47a43;}</style></defs><title>logo_luxum_navy</title><path class="cls-1" d="M432.26,234.67q-.27,0-.55.55l-1,1.21-1.7,2.36q-9.87,13.82-14.14,13.81a2,2,0,0,1-2.25-2.24q0-2.08,2.68-6,4.65-7,4.71-7,2.68-4.54,2.68-7.94a7.66,7.66,0,0,0-1.61-4.93,4.9,4.9,0,0,0-4-2q-5.2,0-15.6,14.45,2.9-4.82,2.9-7.94a7.25,7.25,0,0,0-1.48-4.65,4.62,4.62,0,0,0-3.78-1.86q-4.82,0-14.67,14.45,3.23-5.64,3.23-8.81a6.4,6.4,0,0,0-1.26-4,3.7,3.7,0,0,0-3-1.67q-2.69,0-7.62,6.17-3.8,4.77-4.73,6.23a1.6,1.6,0,0,0-.26.38l-1,1.21-1.7,2.36q-9.87,13.82-14.25,13.81-2.25,0-2.25-2.35,0-2.9,6.24-13.08l8.76-14.29a27.74,27.74,0,0,1-3.89.38,13.32,13.32,0,0,1-2.85-.38L354.56,232q-12.21,20.64-17.73,20.64-2.08,0-2.08-2.46a11.66,11.66,0,0,1,2-5.8l13-21.46a31.2,31.2,0,0,1-3.72.38,15.37,15.37,0,0,1-2.9-.38l-7,11.85a4.62,4.62,0,0,0-1,1.15q-11.89,16.72-17.59,16.72-3.95,0-3.95-4.16,0-6.46,6.65-15.82t11.3-9.36q2.24,0,2.24,1.75t-2.46,2.57q-3.94,1.2-3.94,3.83,0,2.79,2.68,2.79a5.07,5.07,0,0,0,3.94-2.3,7.9,7.9,0,0,0,1.81-5q0-4.49-4.16-4.49-5.47,0-13,11.55a9.88,9.88,0,0,0,.82-3.67,7.86,7.86,0,0,0-2.13-5.64,7.15,7.15,0,0,0-5.41-2.24q-4.26,0-9.68,6c-3.06,3.39-4.8,5.57-5.27,6.56a1.61,1.61,0,0,0-.14.21l-1,1.21-1.7,2.36q-9.87,13.82-14.25,13.81-2.25,0-2.25-2.35,0-2.9,6.24-13.08l8.76-14.29a27.74,27.74,0,0,1-3.89.38,13.32,13.32,0,0,1-2.85-.38L280.45,232a131.19,131.19,0,0,1-8.89,13.45c-1.08,1.28-2.12,2.51-2.88,3.39-2.4,2.53-4.39,3.8-6,3.8q-2.08,0-2.08-2.46a11.66,11.66,0,0,1,2-5.8l13-21.46a31.19,31.19,0,0,1-3.72.38,15.37,15.37,0,0,1-2.9-.38l-10,16.75a14.6,14.6,0,0,0-2.46,7.28,6.8,6.8,0,0,0,1.64,4.63,5.16,5.16,0,0,0,4.05,1.89l.18,0a16.74,16.74,0,0,1-6.91,1.48,44.17,44.17,0,0,1-9.6-1.12q-5-1.12-30.38-7.88,14.42-3.7,22.91-11.74t16.46-25.51A134.14,134.14,0,0,0,276.59,188q11.13-12.88,11.13-17.41,0-2.3-2.61-2.3-6.25,0-18.05,12.37a107.05,107.05,0,0,0-10.4,12.63q-4.53,6.51-14.54,23.28-12,10.14-20.19,14.22a36.68,36.68,0,0,1-16.49,4.08q-9.63,0-15.15-4.91t-5.52-13.52q0-18.3,15.47-35.21t32.37-16.9a16.1,16.1,0,0,1,11.51,4.24,14.22,14.22,0,0,1,4.5,10.81q0,12.18-11.9,25.93T214.3,219.09a11,11,0,0,1-7.56-2.68,8.57,8.57,0,0,1-3-6.7q0-4,1.4-4,.51,0,.45,1.85-.13,2.87,3,2.87a4.63,4.63,0,0,0,3.44-1.63,5.29,5.29,0,0,0,1.53-3.73q0-3.89-4-3.89a6.46,6.46,0,0,0-5.07,2.52,8.92,8.92,0,0,0-2.14,6,9.8,9.8,0,0,0,3.35,7.53,11.71,11.71,0,0,0,8.2,3.06q11.42,0,23.66-14t12.25-27q0-7.4-5-11.74t-13.43-4.34q-18.24,0-34.6,15.5T180.43,211.5q0,11.29,6.67,17.92T205,236.06q16.52,0,35.53-16.58-8.3,12.5-13.75,17.89a36.47,36.47,0,0,1-12.48,8.13q-23.53-6.12-35.39-6.12-15.3,0-15.3,5.74,0,6.12,20,6.12a112.91,112.91,0,0,0,21.94-2.1q16.58,5.29,24.68,7a83.8,83.8,0,0,0,16.83,1.66q11.92,0,18.17-4.29c1.75-1.23,7.48-8.62,9.85-11.89l.54-.73q-2.13,3.83-2.13,6a6.93,6.93,0,0,0,1.67,4.68,5.19,5.19,0,0,0,4.08,1.94q3.84,0,10.41-7.78c4.75-5.6,7.35-9,7.84-10.27a9.28,9.28,0,0,0,.7-.86q8.09-11.25,13.28-11.25,3.06,0,3.06,3.33,0,6.83-8.32,18.48-5.25,7.39-9.31,7.39-2,0-2-1.7t2.46-2.46q4.49-1.2,4.49-4.38,0-2.76-2.9-2.76a5.75,5.75,0,0,0-4.38,2.41,8,8,0,0,0-2,5.25,4.7,4.7,0,0,0,1.2,3.26,3.82,3.82,0,0,0,3,1.34q5.58,0,13-12.59a15.39,15.39,0,0,0-.82,4.16,8.21,8.21,0,0,0,2.47,5.88,7.77,7.77,0,0,0,5.75,2.54q3.29,0,7.4-3.84a90,90,0,0,0,8.74-10.13l-.11.18a14.6,14.6,0,0,0-2.46,7.28,6.8,6.8,0,0,0,1.64,4.63,5.16,5.16,0,0,0,4.05,1.89q2.3,0,4.87-2.46a84.12,84.12,0,0,0,7.39-8.65l1.09-1.48q-2.13,3.83-2.13,6a6.93,6.93,0,0,0,1.67,4.68,5.19,5.19,0,0,0,4.08,1.94q3.84,0,10.41-7.78c4.79-5.66,7.4-9.07,7.85-10.3q.12-.14.26-.33,8.45-11.74,11.13-11.74,1.26,0,1.26,1.64,0,3-8.1,15.71l-7.83,12.32a27.67,27.67,0,0,1,3.72-.22,19.5,19.5,0,0,1,3.23.22,148,148,0,0,1,13.57-21q6.84-8.65,9.85-8.65,2,0,2,2.46,0,2.74-7.61,14.89l-7.77,12.32a28.64,28.64,0,0,1,3.83-.22,16.18,16.18,0,0,1,3,.22q17.57-29.67,24.8-29.67a2,2,0,0,1,2.24,2.24q0,2-4.6,8.59-3.61,5.2-4,5.86a13.27,13.27,0,0,0-2.08,6.62,7.29,7.29,0,0,0,1.64,4.93,5.31,5.31,0,0,0,4.22,1.92q4.93,0,15.23-14.31l2.36-3.23a5.83,5.83,0,0,0,.55-.88A.29.29,0,0,0,432.26,234.67Zm-160.1-55.83q8.23-9.63,12.95-9.63,1.53,0,1.53,1.4,0,4-10,15.59a161.62,161.62,0,0,1-20.86,20.51Q264.82,187.45,272.16,178.84Zm-87.9,71.25q-19.58,0-19.58-5,0-3.7,8.35-3.7,8,0,30.42,7.08A105.76,105.76,0,0,1,184.26,250.09Z" transform="translate(-163.6 -163.21)"/><path class="cls-2" d="M303.31,190.61v0a1.71,1.71,0,0,0,.08.22l0,.09a1.91,1.91,0,0,0,.08.19l0,0c0,.08.12.17.18.25l.11.15.1.13a6,6,0,0,0,.65.62l.2.14.35.24.05,0,0,0,.22.12.35.18.16.08.11,0a8.88,8.88,0,0,0,1.56.49l.09,0h.08q.4.08.81.12h.11l.33,0,.44,0h.17l.27,0,.48,0h.12l.22,0h.09l.45-.08.31-.06.16,0h0l.13,0,.4-.13.2-.07h0a5.87,5.87,0,0,0,.68-.33l.09-.05.13-.09.31-.21.07,0,.14-.11c.11-.09.22-.19.32-.3l0,0,.09-.08.12-.13a4.86,4.86,0,0,0,.41-.53l.06-.09a5.09,5.09,0,0,0,.39-.74,5.14,5.14,0,0,1,1.57.29l.08,0,.29.1h0c.3.11.51.2.51.21l1.12.12h0l1.62-.41.35.12.2.08.91.39h0l1.06.42.52.2q.89.33,1.79.63l.3.11a50.72,50.72,0,0,0,6.43,1.6c2.36.44,4.2.64,5.08.72l.48,0,1.64.11,1.05,0,1.22,0,.67,0h.43c.9,0,1.81,0,2.71-.08h.34c-4-1.41-8-2.8-12-4.13-2.05-.68-4.14-1.36-6.2-2l18.59-4.53h0a66.25,66.25,0,0,0-7.06-.38h-.34l-.72,0c-1,0-2.09,0-3.09.11h0l-.37,0h0q-2,.14-4,.4h0l-.18,0-.24,0h0q-1.53.21-3.06.49h0l-.43.08h0q-1.63.31-3.25.71h0l-.22,0h0l-.05.09h0l0,.06h0l0,0a1.73,1.73,0,0,1-.51.67h0l0,0a1.48,1.48,0,0,1-.53.22h-.1a2.82,2.82,0,0,1-.82,0h0l-1.23-.32h0a34.68,34.68,0,0,0-2.35-2.68l-.28-.27-.21-.21-.36-.35-.23-.21,0,0-.4-.35-.09-.07a7.08,7.08,0,0,0-.58-.43h0l0,0a2.6,2.6,0,0,0-.26-.13,2.23,2.23,0,0,0-.32-.16s0,0,0-.06a5.08,5.08,0,0,0,.21-1s0,0,0-.06,0-.17,0-.25,0-.12,0-.18,0-.21,0-.31,0-.12,0-.19,0-.15,0-.22l0-.08a3.08,3.08,0,0,0-.16-.46c0-.08-.08-.15-.12-.22s-.1-.18-.16-.27l-.06-.1-.11-.12a3.88,3.88,0,0,0-.27-.3l-.2-.19a5.12,5.12,0,0,0-.41-.32l-.15-.12-.14-.08a6.58,6.58,0,0,0-.74-.41l-.05,0-.23-.09-.1,0c-.19-.07-.38-.14-.57-.19l-.08,0-.26-.06h-.06a5.08,5.08,0,0,0-.61-.08h-.31a3.76,3.76,0,0,0-.83.08H309l-.13.06a2.69,2.69,0,0,0-.66.28s-.1,0-.15.06,0,.06-.08.09l0,0a2.34,2.34,0,0,0-.55.59h0l0,0a2.77,2.77,0,0,0-.27.64s0,.08,0,.12a2.53,2.53,0,0,0-.08.49,2.84,2.84,0,0,0,.18,1.06,3.43,3.43,0,0,0,.57,1,5.51,5.51,0,0,0,.68.54l.07,0a6.1,6.1,0,0,0,.58.34l.11.06a4.85,4.85,0,0,0,.9.33l.06,0a4.89,4.89,0,0,0,.53,1.51h0a3.3,3.3,0,0,0,1.5-.39,3.1,3.1,0,0,1,.57,0h0a4.27,4.27,0,0,1,1.41.35,4.55,4.55,0,0,1,.91.54h0a5.19,5.19,0,0,1,.8.76h0a8,8,0,0,1,1.47,2.82c0,.2.1.4.16.6h0l-.33.36a34.83,34.83,0,0,0-4.64-1h-.15c-.66-.09-1.3-.15-1.91-.18h-.3c-.56,0-1.09,0-1.6,0h-.14l-.19,0a12.94,12.94,0,0,0-1.53.18l-.13,0-.16,0a8.9,8.9,0,0,0-.87.23h0a6.84,6.84,0,0,0-.85.33,4.51,4.51,0,0,0-.46.24l0,0,0,0,0,0-.28.2-.09.07,0,0a1.68,1.68,0,0,0-.14.17,1.63,1.63,0,0,0-.15.19.77.77,0,0,0-.06.14v0l0,.07a1.18,1.18,0,0,0-.06.18s0,0,0,.06a398.77,398.77,0,0,0,0,.42Zm20.28-.84a2.8,2.8,0,0,1,0-.28c0-.06,0-.12,0-.19v0a5.64,5.64,0,0,1,.21-.7l1,.31h0l.32.1h0l.2.06h.06l1.09.35h0l17.84,5.74a33.46,33.46,0,0,1-6.35-.69l-1.32-.3c-.12,0-11.69-3.39-13-3.84v0a.77.77,0,0,1,0-.15h0a.77.77,0,0,1-.06-.23C323.58,189.89,323.58,189.83,323.59,189.77Zm-2.95-1.18a.79.79,0,0,1,1.28.68v0a.77.77,0,0,1-.14.34l-.08.09a.79.79,0,0,1-.29.19.78.78,0,0,1-.35.05.79.79,0,0,1-.42-1.39ZM314,181a1.58,1.58,0,0,1-.06.24,1.15,1.15,0,0,1-.26.4l0,0h0a1.11,1.11,0,0,1-.32.2l-.12,0a1.79,1.79,0,0,1-.49.07h-.12a3.49,3.49,0,0,1-.74-.11h0a6,6,0,0,1-.75-.26l-.12,0a8.61,8.61,0,0,1-.84-.42,5.6,5.6,0,0,1-.65-.43l0,0-.06-.05a3.81,3.81,0,0,1-.41-.38l-.05-.06-.05-.06a2.51,2.51,0,0,1-.25-.36l-.07-.13a1.69,1.69,0,0,1-.13-.4s0-.05,0-.08a1.4,1.4,0,0,1,.05-.61,1.51,1.51,0,0,1,.07-.18,1.65,1.65,0,0,1,.08-.17,2,2,0,0,1,.19-.26l.07-.09a1.66,1.66,0,0,1,.32-.21,1.8,1.8,0,0,1,.19-.12,1.87,1.87,0,0,1,.44-.1,1.24,1.24,0,0,1,.21,0,2.53,2.53,0,0,1,.39,0l.22,0h0a4,4,0,0,1,.64.18l.22.09.32.14.24.12.12.07.31.19a5.28,5.28,0,0,1,1.22,1.28l.07.13a2.83,2.83,0,0,1,.17.32v0h0a2,2,0,0,1,.1.37.76.76,0,0,1,0,.1v0a1,1,0,0,1,0,.47Zm-9.19,9.83a.8.8,0,0,1,.09-.18v0a.94.94,0,0,1,.14-.15l0-.05a1.35,1.35,0,0,1,.25-.15l.06,0a2.24,2.24,0,0,1,.45-.13,11.48,11.48,0,0,0,1.25,0h0c.36,0,.73,0,1.12-.05l.12,0c.7-.07,1.36-.17,2-.29l.11,0a21.39,21.39,0,0,0,2.21-.56,2.31,2.31,0,0,1,.64.08l.08,0a1.42,1.42,0,0,1,.52.29l.09.11a1.12,1.12,0,0,1,.13.17,1.28,1.28,0,0,1,.07.18,1.24,1.24,0,0,1,.06.18s0,0,0,.07a.86.86,0,0,1,0,.4s0,.07-.05.1a1.89,1.89,0,0,1-.25.42,3,3,0,0,1-.28.3l-.19.16-.3.23-.24.16-.41.23-.22.12a7.73,7.73,0,0,1-1.09.42l-.2.06a7.11,7.11,0,0,1-1.17.23h-.11a5.55,5.55,0,0,1-.57,0l-.44,0-.34,0-.42-.08-.16,0-.14,0-.38-.11-.29-.1c-.24-.09-.46-.18-.66-.28l-.05,0-.5-.26-.07,0-.28-.18-.14-.1-.05,0-.16-.14A.86.86,0,0,1,304.8,190.8Z" transform="translate(-163.6 -163.21)"/></svg>